<mxfile host="app.diagrams.net" modified="2020-06-24T18:54:04.009Z" agent="5.0 (Windows NT 10.0; Win64; x64) AppleWebKit/537.36 (KHTML, like Gecko) Chrome/83.0.4103.116 Safari/537.36" etag="r3MzVGEPgx-K_y1xQFsW" version="13.3.0" type="github">
  <diagram id="BLR8Slvkn799spfnD7lA" name="Page-1">
    <mxGraphModel dx="2522" dy="2494" grid="1" gridSize="10" guides="1" tooltips="1" connect="1" arrows="1" fold="1" page="1" pageScale="1" pageWidth="1100" pageHeight="1700" math="0" shadow="0">
      <root>
        <mxCell id="0" />
        <mxCell id="1" parent="0" />
        <mxCell id="b_czFEy9JOoY2JpUEMk2-38" style="edgeStyle=orthogonalEdgeStyle;rounded=0;orthogonalLoop=1;jettySize=auto;html=1;exitX=0.5;exitY=1;exitDx=0;exitDy=0;" edge="1" parent="1" source="b_czFEy9JOoY2JpUEMk2-1" target="b_czFEy9JOoY2JpUEMk2-6">
          <mxGeometry relative="1" as="geometry">
            <mxPoint x="545" as="targetPoint" />
          </mxGeometry>
        </mxCell>
        <mxCell id="b_czFEy9JOoY2JpUEMk2-1" value="" style="ellipse;whiteSpace=wrap;html=1;aspect=fixed;fillColor=#dae8fc;strokeColor=#6c8ebf;" vertex="1" parent="1">
          <mxGeometry x="530" y="-50" width="30" height="30" as="geometry" />
        </mxCell>
        <mxCell id="b_czFEy9JOoY2JpUEMk2-41" style="edgeStyle=orthogonalEdgeStyle;rounded=0;orthogonalLoop=1;jettySize=auto;html=1;exitX=0.25;exitY=1;exitDx=0;exitDy=0;entryX=0.25;entryY=0;entryDx=0;entryDy=0;" edge="1" parent="1" source="b_czFEy9JOoY2JpUEMk2-6" target="b_czFEy9JOoY2JpUEMk2-11">
          <mxGeometry relative="1" as="geometry" />
        </mxCell>
        <mxCell id="b_czFEy9JOoY2JpUEMk2-42" style="edgeStyle=orthogonalEdgeStyle;rounded=0;orthogonalLoop=1;jettySize=auto;html=1;exitX=0.75;exitY=1;exitDx=0;exitDy=0;entryX=0.75;entryY=0;entryDx=0;entryDy=0;" edge="1" parent="1" source="b_czFEy9JOoY2JpUEMk2-6" target="b_czFEy9JOoY2JpUEMk2-11">
          <mxGeometry relative="1" as="geometry" />
        </mxCell>
        <mxCell id="b_czFEy9JOoY2JpUEMk2-6" value="Enter course ID" style="rounded=1;whiteSpace=wrap;html=1;" vertex="1" parent="1">
          <mxGeometry x="485" y="150" width="120" height="60" as="geometry" />
        </mxCell>
        <mxCell id="b_czFEy9JOoY2JpUEMk2-7" value="" style="group" vertex="1" connectable="0" parent="1">
          <mxGeometry x="540" y="1160" width="30" height="30" as="geometry" />
        </mxCell>
        <mxCell id="b_czFEy9JOoY2JpUEMk2-2" value="" style="group" vertex="1" connectable="0" parent="b_czFEy9JOoY2JpUEMk2-7">
          <mxGeometry width="30" height="30" as="geometry" />
        </mxCell>
        <mxCell id="b_czFEy9JOoY2JpUEMk2-3" value="" style="ellipse;whiteSpace=wrap;html=1;aspect=fixed;fillColor=#dae8fc;strokeColor=#6c8ebf;" vertex="1" parent="b_czFEy9JOoY2JpUEMk2-2">
          <mxGeometry width="30" height="30" as="geometry" />
        </mxCell>
        <mxCell id="b_czFEy9JOoY2JpUEMk2-4" value="" style="ellipse;whiteSpace=wrap;html=1;aspect=fixed;fillColor=#dae8fc;strokeColor=#6c8ebf;" vertex="1" parent="b_czFEy9JOoY2JpUEMk2-2">
          <mxGeometry x="10" y="10" width="10" height="10" as="geometry" />
        </mxCell>
        <mxCell id="b_czFEy9JOoY2JpUEMk2-44" style="edgeStyle=orthogonalEdgeStyle;rounded=0;orthogonalLoop=1;jettySize=auto;html=1;exitX=0.5;exitY=1;exitDx=0;exitDy=0;entryX=0.5;entryY=0;entryDx=0;entryDy=0;" edge="1" parent="1" source="b_czFEy9JOoY2JpUEMk2-11" target="b_czFEy9JOoY2JpUEMk2-43">
          <mxGeometry relative="1" as="geometry" />
        </mxCell>
        <mxCell id="b_czFEy9JOoY2JpUEMk2-11" value="Search course table for matching ID" style="rounded=1;whiteSpace=wrap;html=1;" vertex="1" parent="1">
          <mxGeometry x="485" y="250" width="120" height="60" as="geometry" />
        </mxCell>
        <mxCell id="b_czFEy9JOoY2JpUEMk2-13" value="Remove data from database" style="rounded=1;whiteSpace=wrap;html=1;" vertex="1" parent="1">
          <mxGeometry x="150" y="460" width="120" height="60" as="geometry" />
        </mxCell>
        <mxCell id="b_czFEy9JOoY2JpUEMk2-16" value="[Found, remove course]" style="text;html=1;align=center;verticalAlign=middle;resizable=0;points=[];autosize=1;" vertex="1" parent="1">
          <mxGeometry x="280" y="320" width="140" height="20" as="geometry" />
        </mxCell>
        <mxCell id="b_czFEy9JOoY2JpUEMk2-20" style="edgeStyle=orthogonalEdgeStyle;rounded=0;orthogonalLoop=1;jettySize=auto;html=1;exitX=1;exitY=0.5;exitDx=0;exitDy=0;entryX=0;entryY=0.5;entryDx=0;entryDy=0;" edge="1" parent="1" source="b_czFEy9JOoY2JpUEMk2-19" target="b_czFEy9JOoY2JpUEMk2-11">
          <mxGeometry relative="1" as="geometry" />
        </mxCell>
        <mxCell id="b_czFEy9JOoY2JpUEMk2-47" style="edgeStyle=orthogonalEdgeStyle;rounded=0;orthogonalLoop=1;jettySize=auto;html=1;exitX=0.25;exitY=1;exitDx=0;exitDy=0;entryX=0.25;entryY=0;entryDx=0;entryDy=0;" edge="1" parent="1" source="b_czFEy9JOoY2JpUEMk2-19" target="b_czFEy9JOoY2JpUEMk2-13">
          <mxGeometry relative="1" as="geometry" />
        </mxCell>
        <mxCell id="b_czFEy9JOoY2JpUEMk2-19" value="Database" style="rounded=0;whiteSpace=wrap;html=1;" vertex="1" parent="1">
          <mxGeometry x="150" y="240" width="120" height="60" as="geometry" />
        </mxCell>
        <mxCell id="b_czFEy9JOoY2JpUEMk2-26" style="edgeStyle=orthogonalEdgeStyle;rounded=0;orthogonalLoop=1;jettySize=auto;html=1;exitX=0.5;exitY=1;exitDx=0;exitDy=0;entryX=0.5;entryY=0;entryDx=0;entryDy=0;" edge="1" parent="1" source="b_czFEy9JOoY2JpUEMk2-23" target="b_czFEy9JOoY2JpUEMk2-25">
          <mxGeometry relative="1" as="geometry" />
        </mxCell>
        <mxCell id="b_czFEy9JOoY2JpUEMk2-23" value="Search through student/instructor course values for matching ID" style="rounded=1;whiteSpace=wrap;html=1;" vertex="1" parent="1">
          <mxGeometry x="-110" y="670" width="120" height="60" as="geometry" />
        </mxCell>
        <mxCell id="b_czFEy9JOoY2JpUEMk2-33" style="edgeStyle=orthogonalEdgeStyle;rounded=0;orthogonalLoop=1;jettySize=auto;html=1;exitX=1;exitY=0.5;exitDx=0;exitDy=0;entryX=0;entryY=0.5;entryDx=0;entryDy=0;" edge="1" parent="1" source="b_czFEy9JOoY2JpUEMk2-25" target="b_czFEy9JOoY2JpUEMk2-32">
          <mxGeometry relative="1" as="geometry" />
        </mxCell>
        <mxCell id="b_czFEy9JOoY2JpUEMk2-25" value="Change matching course_id to NULL" style="rounded=1;whiteSpace=wrap;html=1;" vertex="1" parent="1">
          <mxGeometry x="-160" y="820" width="120" height="60" as="geometry" />
        </mxCell>
        <mxCell id="b_czFEy9JOoY2JpUEMk2-31" style="edgeStyle=orthogonalEdgeStyle;rounded=0;orthogonalLoop=1;jettySize=auto;html=1;exitX=0.75;exitY=1;exitDx=0;exitDy=0;entryX=0.25;entryY=0;entryDx=0;entryDy=0;" edge="1" parent="1" source="b_czFEy9JOoY2JpUEMk2-28" target="b_czFEy9JOoY2JpUEMk2-23">
          <mxGeometry relative="1" as="geometry" />
        </mxCell>
        <mxCell id="b_czFEy9JOoY2JpUEMk2-28" value="Student" style="rounded=0;whiteSpace=wrap;html=1;" vertex="1" parent="1">
          <mxGeometry x="-190" y="460" width="120" height="60" as="geometry" />
        </mxCell>
        <mxCell id="b_czFEy9JOoY2JpUEMk2-30" style="edgeStyle=orthogonalEdgeStyle;rounded=0;orthogonalLoop=1;jettySize=auto;html=1;exitX=1;exitY=0.5;exitDx=0;exitDy=0;entryX=0;entryY=0.5;entryDx=0;entryDy=0;" edge="1" parent="1" source="b_czFEy9JOoY2JpUEMk2-29" target="b_czFEy9JOoY2JpUEMk2-23">
          <mxGeometry relative="1" as="geometry" />
        </mxCell>
        <mxCell id="b_czFEy9JOoY2JpUEMk2-29" value="Instructor" style="rounded=0;whiteSpace=wrap;html=1;" vertex="1" parent="1">
          <mxGeometry x="-250" y="560" width="120" height="60" as="geometry" />
        </mxCell>
        <mxCell id="b_czFEy9JOoY2JpUEMk2-34" style="edgeStyle=orthogonalEdgeStyle;rounded=0;orthogonalLoop=1;jettySize=auto;html=1;exitX=0.5;exitY=1;exitDx=0;exitDy=0;entryX=0;entryY=0.5;entryDx=0;entryDy=0;" edge="1" parent="1" source="b_czFEy9JOoY2JpUEMk2-32" target="b_czFEy9JOoY2JpUEMk2-3">
          <mxGeometry relative="1" as="geometry" />
        </mxCell>
        <mxCell id="b_czFEy9JOoY2JpUEMk2-32" value="Give confirmation of deleted course to admin" style="rounded=1;whiteSpace=wrap;html=1;" vertex="1" parent="1">
          <mxGeometry x="110" y="820" width="120" height="60" as="geometry" />
        </mxCell>
        <mxCell id="b_czFEy9JOoY2JpUEMk2-45" style="edgeStyle=orthogonalEdgeStyle;rounded=0;orthogonalLoop=1;jettySize=auto;html=1;exitX=0;exitY=0.5;exitDx=0;exitDy=0;entryX=0.5;entryY=0;entryDx=0;entryDy=0;" edge="1" parent="1" source="b_czFEy9JOoY2JpUEMk2-43" target="b_czFEy9JOoY2JpUEMk2-13">
          <mxGeometry relative="1" as="geometry" />
        </mxCell>
        <mxCell id="b_czFEy9JOoY2JpUEMk2-57" style="edgeStyle=orthogonalEdgeStyle;rounded=0;orthogonalLoop=1;jettySize=auto;html=1;exitX=1;exitY=0.5;exitDx=0;exitDy=0;entryX=0.5;entryY=0;entryDx=0;entryDy=0;" edge="1" parent="1" source="b_czFEy9JOoY2JpUEMk2-43" target="b_czFEy9JOoY2JpUEMk2-61">
          <mxGeometry relative="1" as="geometry">
            <mxPoint x="800" y="430" as="targetPoint" />
          </mxGeometry>
        </mxCell>
        <mxCell id="b_czFEy9JOoY2JpUEMk2-43" value="" style="rhombus;whiteSpace=wrap;html=1;rounded=0;" vertex="1" parent="1">
          <mxGeometry x="530" y="340" width="30" height="30" as="geometry" />
        </mxCell>
        <mxCell id="b_czFEy9JOoY2JpUEMk2-48" value="[Not found, add course]" style="text;html=1;align=center;verticalAlign=middle;resizable=0;points=[];autosize=1;" vertex="1" parent="1">
          <mxGeometry x="620" y="320" width="140" height="20" as="geometry" />
        </mxCell>
        <mxCell id="b_czFEy9JOoY2JpUEMk2-69" style="edgeStyle=orthogonalEdgeStyle;rounded=0;orthogonalLoop=1;jettySize=auto;html=1;exitX=0.5;exitY=1;exitDx=0;exitDy=0;entryX=0.5;entryY=0;entryDx=0;entryDy=0;" edge="1" parent="1" source="b_czFEy9JOoY2JpUEMk2-61" target="b_czFEy9JOoY2JpUEMk2-62">
          <mxGeometry relative="1" as="geometry" />
        </mxCell>
        <mxCell id="b_czFEy9JOoY2JpUEMk2-61" value="Input title, department, instructor, etc" style="rounded=1;whiteSpace=wrap;html=1;" vertex="1" parent="1">
          <mxGeometry x="740" y="440" width="120" height="60" as="geometry" />
        </mxCell>
        <mxCell id="b_czFEy9JOoY2JpUEMk2-62" value="Add course to instructor" style="rounded=1;whiteSpace=wrap;html=1;" vertex="1" parent="1">
          <mxGeometry x="740" y="580" width="120" height="60" as="geometry" />
        </mxCell>
        <mxCell id="b_czFEy9JOoY2JpUEMk2-65" style="edgeStyle=orthogonalEdgeStyle;rounded=0;orthogonalLoop=1;jettySize=auto;html=1;exitX=0.5;exitY=1;exitDx=0;exitDy=0;" edge="1" parent="1" source="b_czFEy9JOoY2JpUEMk2-13" target="b_czFEy9JOoY2JpUEMk2-23">
          <mxGeometry relative="1" as="geometry">
            <mxPoint x="195" y="565" as="sourcePoint" />
          </mxGeometry>
        </mxCell>
      </root>
    </mxGraphModel>
  </diagram>
</mxfile>
